<?xml version="1.0" standalone="no"?>
<!DOCTYPE svg PUBLIC "-//W3C//DTD SVG 20010904//EN"
 "http://www.w3.org/TR/2001/REC-SVG-20010904/DTD/svg10.dtd">
<svg version="1.0" xmlns="http://www.w3.org/2000/svg"
 width="1214.000000pt" height="1214.000000pt" viewBox="0 0 1214.000000 1214.000000"
 preserveAspectRatio="xMidYMid meet">
<metadata>
Created by potrace 1.11, written by Peter Selinger 2001-2013
</metadata>
<g transform="translate(0.000000,1214.000000) scale(0.100000,-0.100000)"
fill="#000000" stroke="none">
<path d="M4587 9814 c-32 -52 -1183 -1842 -1261 -1964 -90 -139 -335 -520
-376 -585 -19 -30 -105 -163 -190 -295 -85 -133 -161 -251 -168 -263 -13 -22
-693 -1079 -712 -1107 -6 -8 -44 -67 -84 -130 -41 -63 -129 -202 -197 -308
-68 -106 -135 -210 -149 -232 -23 -37 -541 -843 -861 -1340 -26 -41 -53 -80
-59 -87 -5 -7 -10 -14 -10 -17 0 -3 -129 -207 -255 -401 -18 -27 -58 -90 -90
-140 -32 -49 -84 -130 -116 -179 l-58 -90 32 -21 c18 -12 133 -87 257 -166
124 -79 250 -160 280 -181 51 -34 56 -35 71 -20 9 10 94 139 189 287 326 508
423 660 485 755 73 112 774 1203 890 1385 44 69 145 226 225 350 157 244 359
559 454 707 33 51 83 129 111 173 29 44 114 177 190 295 76 118 158 246 183
284 25 39 75 117 112 175 37 58 97 153 135 211 143 222 170 264 180 280 14 22
43 68 117 182 35 54 84 130 109 170 26 40 90 140 143 221 53 82 96 150 96 152
0 1 22 35 48 76 27 41 82 125 122 187 l74 113 14 -28 c13 -24 85 -180 160
-343 11 -25 41 -90 67 -145 26 -55 112 -242 192 -415 80 -173 170 -366 199
-429 30 -62 54 -115 54 -117 0 -2 21 -47 46 -101 25 -54 71 -152 101 -218 58
-127 99 -215 153 -330 18 -38 72 -155 120 -260 48 -104 104 -226 125 -270 21
-44 61 -132 90 -195 52 -113 82 -179 171 -369 24 -52 46 -92 48 -90 4 4 190
311 405 669 61 102 115 192 120 200 5 8 51 85 103 170 51 85 96 157 100 158 5
2 8 7 8 12 0 4 91 158 202 341 763 1265 1060 1756 1075 1783 9 16 35 -27 284
-469 12 -22 48 -85 79 -140 184 -326 290 -515 310 -550 12 -22 59 -103 103
-180 44 -77 90 -158 102 -180 11 -22 52 -94 90 -160 37 -66 79 -140 93 -165
14 -25 76 -134 139 -244 62 -109 113 -200 113 -202 0 -3 11 -21 23 -42 13 -20
39 -64 57 -97 18 -33 112 -199 208 -370 97 -170 192 -339 212 -375 107 -190
200 -355 210 -370 5 -8 18 -31 28 -50 22 -41 360 -639 391 -690 11 -19 24 -41
28 -49 4 -8 40 -74 81 -145 41 -72 92 -165 115 -206 22 -41 44 -76 49 -78 4
-2 8 -8 8 -13 0 -5 64 -123 143 -262 79 -138 157 -277 174 -307 17 -30 47 -84
68 -120 20 -36 53 -94 73 -130 19 -36 45 -81 57 -100 12 -19 37 -62 55 -95
137 -250 133 -243 152 -228 7 6 40 25 73 43 128 70 150 82 160 90 6 4 36 21
69 39 157 85 326 185 326 193 0 6 -26 55 -58 111 -33 56 -71 123 -85 150 -62
109 -81 144 -98 172 -10 17 -27 48 -39 69 -12 22 -79 141 -149 265 -166 291
-181 319 -611 1081 -51 91 -103 182 -116 202 -13 21 -24 39 -24 42 0 2 -31 59
-70 126 -39 67 -70 123 -70 124 0 2 -23 43 -51 92 -68 117 -83 143 -139 244
-26 47 -71 125 -99 174 -28 49 -51 90 -51 92 0 1 -23 42 -51 91 -28 48 -65
113 -82 143 -49 88 -58 105 -169 300 -115 203 -218 385 -266 470 -16 30 -94
168 -172 305 -78 138 -158 279 -178 315 -19 36 -46 82 -59 102 -12 21 -23 40
-23 42 0 2 -20 39 -45 80 -25 42 -45 79 -45 81 0 3 -18 34 -40 70 -22 36 -40
67 -40 70 0 2 -29 54 -65 116 -36 61 -65 113 -65 115 0 2 -22 41 -48 86 -41
70 -164 286 -252 443 -12 22 -41 74 -65 115 -23 41 -53 95 -67 120 -14 25
-130 230 -258 455 -128 226 -267 472 -309 547 -42 76 -79 138 -82 138 -3 0
-69 -105 -146 -232 -77 -128 -265 -440 -418 -693 -153 -253 -297 -491 -320
-530 -99 -165 -629 -1042 -710 -1175 -49 -80 -95 -156 -102 -170 -8 -14 -22
-37 -31 -52 -9 -15 -46 -75 -82 -134 -36 -59 -77 -128 -93 -153 -15 -25 -33
-56 -39 -68 -6 -13 -14 -23 -17 -23 -3 0 -26 44 -51 98 -24 53 -66 144 -93
202 -27 58 -63 134 -79 170 -17 36 -96 209 -178 385 -81 176 -158 343 -170
370 -13 28 -49 106 -81 174 -33 68 -59 125 -59 126 0 2 -22 49 -49 106 -26 57
-59 127 -71 154 -12 28 -41 88 -63 135 -21 47 -51 110 -64 140 -56 122 -133
289 -190 410 -19 41 -100 215 -178 385 -79 171 -154 334 -168 364 l-25 53 -25
-38z"/>
<path d="M8030 7887 c0 -3 12 -52 26 -109 42 -168 64 -259 79 -327 37 -163 60
-222 213 -526 l158 -317 -33 -144 c-18 -79 -35 -156 -38 -172 -2 -15 -9 -43
-15 -62 -14 -50 -13 -61 15 -95 326 -403 486 -612 482 -630 -3 -11 -32 -108
-66 -215 -33 -107 -61 -200 -61 -205 0 -6 12 -19 27 -30 14 -11 31 -24 37 -30
6 -5 34 -28 61 -50 28 -22 57 -45 65 -52 8 -7 47 -37 85 -68 39 -31 94 -77
124 -103 54 -47 206 -146 310 -204 31 -17 81 -45 111 -63 130 -77 450 -253
450 -247 0 4 -34 67 -75 141 -41 74 -75 136 -75 137 0 2 -13 25 -28 51 -16 26
-46 80 -67 118 -21 39 -114 206 -207 373 -93 167 -178 320 -189 340 -11 20
-24 44 -29 52 -7 11 -760 1366 -1022 1840 -85 154 -245 440 -261 470 -11 19
-31 55 -45 80 -27 49 -32 56 -32 47z"/>
<path d="M4437 7647 c-16 -67 -30 -129 -32 -137 -2 -8 -14 -60 -28 -115 -14
-62 -21 -108 -16 -120 5 -11 36 -108 70 -215 33 -107 77 -244 97 -305 20 -60
37 -114 38 -120 2 -10 22 -74 103 -324 36 -111 37 -116 24 -175 -7 -34 -15
-74 -17 -91 -3 -16 -14 -77 -26 -135 -11 -58 -20 -110 -20 -117 0 -7 105 -118
232 -248 l233 -236 91 -176 91 -175 1 -212 c0 -116 0 -218 1 -227 1 -21 67
-41 241 -74 59 -11 248 -44 285 -49 22 -4 51 -8 65 -11 113 -21 184 -29 178
-19 -9 16 -88 186 -88 189 0 2 -29 65 -65 140 -36 76 -65 139 -65 140 0 2 -20
46 -44 97 -48 101 -93 199 -136 293 -25 55 -47 101 -130 280 -15 33 -41 89
-58 125 -16 36 -45 99 -65 140 -19 41 -48 104 -65 140 -56 123 -210 455 -252
545 -23 50 -93 200 -155 335 -62 135 -132 286 -155 335 -23 50 -49 106 -57
125 -9 19 -40 86 -70 148 -29 62 -53 115 -53 116 0 6 -120 256 -123 256 -1 0
-15 -55 -30 -123z"/>
</g>
</svg>
